<?xml version="1.0" encoding="utf-8" ?><svg xmlns="http://www.w3.org/2000/svg" xmlns:xlink="http://www.w3.org/1999/xlink" width="1024" height="1024" viewBox="0 0 1024 1024"><path fill="#7B2DB3" d="M408.278 253.925C407.881 224.366 414.826 199.935 435.926 178.157C454.848 158.501 480.914 147.331 508.198 147.187C534.938 146.786 560.712 157.175 579.699 176.007C600.985 196.856 609.837 222.024 610.035 251.351C610.042 252.483 610.041 253.615 610.032 254.747C615.049 255.988 626.498 262.298 631.323 264.944C671.177 286.928 704.581 318.964 728.211 357.866C747.454 389.81 759.429 425.599 763.286 462.692C764.572 475.229 764.287 489.409 764.327 502.139L764.473 557.204C764.473 571.156 763.868 586.995 766.504 600.489C769.368 614.577 775.06 627.938 783.237 639.763C799.648 663.542 804.872 655.117 826.213 668.585C850.916 684.173 864.908 716.944 857.123 745.63C852.118 764.074 840.645 780.684 824.082 790.47C815.318 795.745 805.589 799.22 795.466 800.69C782.109 802.695 753.473 801.813 738.84 801.761L646.776 801.858C642.067 801.87 614.935 801.422 612.41 802.006C608.254 813.475 605.932 824.543 598.943 835.022C594.823 841.201 590.548 847 585.537 852.447C526.865 916.222 424.418 885.132 406.428 801.943C393.806 801.224 375.602 801.84 362.583 801.833L273.158 801.835C251.056 801.823 223.245 804.062 203.048 795.367C185.21 787.64 171.227 773.067 164.245 754.924C148.662 715.217 171.211 673.052 210.859 660.225C234.409 652.606 248.011 621.103 252.18 598.811C254.528 586.254 253.909 570.715 253.908 557.728L253.853 501.732C253.843 491.489 253.461 477.75 254.268 467.772C256.547 439.605 263.809 411.791 275.144 385.956C295.608 339.402 329.528 300.032 372.544 272.909C382.731 266.381 396.982 258.344 408.278 253.925ZM556.949 802.096C533.111 800.888 508.077 802.388 484.154 801.842C476.789 801.673 467.954 801.248 460.697 801.846C462.183 808.217 468.03 815.197 472.787 819.534C485.939 831.528 504.65 835.208 521.744 831.093C535.51 827.789 547.371 819.09 554.657 806.952C555.575 805.415 556.269 803.75 556.949 802.096Z"/><path fill="#6A0DAD" d="M408.278 253.925C407.881 224.366 414.826 199.935 435.926 178.157C454.848 158.501 480.914 147.331 508.198 147.187C534.938 146.786 560.712 157.175 579.699 176.007C600.985 196.856 609.837 222.024 610.035 251.351C610.042 252.483 610.041 253.615 610.032 254.747C595.358 249.685 581.139 243.053 565.791 239.621C563.616 239.135 558.877 238.899 557.883 237.02C558.278 236.872 522.545 233.629 521.226 233.135C513.927 230.396 462.043 236.775 461.572 236.569C460.823 237.701 460.212 237.933 458.531 238.183C447.642 239.803 436.58 243.763 426.096 247.174C420.335 249.049 413.958 252.2 408.278 253.925Z"/><path fill="#9B59B6" d="M461.572 236.569C464.933 223.2 471.452 212.444 483.582 205.195C495.169 198.268 509.035 196.232 522.124 199.535C534.642 202.593 545.398 210.566 551.964 221.654C555.11 226.986 556.396 231.095 557.883 237.02C558.278 236.872 522.545 233.629 521.226 233.135C513.927 230.396 462.043 236.775 461.572 236.569Z"/><path fill="#6A0DAD" d="M406.428 801.943C422.36 802.186 445.066 802.606 460.697 801.846C462.183 808.217 468.03 815.197 472.787 819.534C485.939 831.528 504.65 835.208 521.744 831.093C535.51 827.789 547.371 819.09 554.657 806.952C555.575 805.415 556.269 803.75 556.949 802.096C574.716 801.883 595.095 802.645 612.41 802.006C608.254 813.475 605.932 824.543 598.943 835.022C594.823 841.201 590.548 847 585.537 852.447C526.865 916.222 424.418 885.132 406.428 801.943Z"/><path fill="#D7A8F0" d="M507.358 285.739C582.505 285.865 648.331 322.581 686.319 387.67C701.676 414.223 710.72 443.952 712.753 474.559C713.5 485.905 713.206 498.075 713.232 509.525L713.375 562.34C713.407 572.85 713.055 586.201 713.92 596.43C714.927 608.207 717.49 619.797 721.542 630.9C730.792 656.552 748.918 684.832 771.571 700.701C781.315 707.526 792.796 707.353 801.367 713.764C809.269 719.673 809.869 735.77 802.189 742.196C798.982 744.879 795.287 748.127 790.589 748.597C781.16 749.278 771.481 748.942 762.011 748.899L707.867 748.797L512.125 748.776L317.365 748.763L260.698 748.879C250.274 748.942 239.244 749.394 229.001 748.761C211.669 747.689 204.298 725.013 217.519 713.726C223.531 708.594 231.801 708.015 238.748 704.919C263.559 693.86 279.978 667.383 291.463 643.827C305.455 613.49 305.488 591.188 305.491 559.236L305.481 507.029C305.477 494.641 305.156 481.772 306.317 469.486C310.601 425.613 329.039 384.324 358.849 351.851C398.215 309.338 449.964 287.887 507.358 285.739Z"/><path fill="#6A0DAD" d="M779.946 140.18C793.005 139.956 804.359 147.48 807.187 160.665C809.637 172.088 802.576 179.95 796.802 188.868C788.64 201.343 780.381 213.754 772.026 226.101C763.36 239.054 759.696 248.828 743.955 251.949C737.235 252.183 731.792 251.393 726.042 247.472C720.625 243.745 716.935 237.995 715.805 231.517C714.264 223.152 716.54 217.29 721.218 210.489C734.704 190.885 748.428 171.425 761.554 151.577C766.782 143.669 770.789 141.828 779.946 140.18Z"/><path fill="#6A0DAD" d="M703.193 86.6496C709.132 86.1651 714.794 87.2797 719.807 90.6315C725.513 94.4191 729.372 100.423 730.448 107.187C731.702 114.596 730.013 120.458 725.893 126.574C712.77 146.053 700.004 165.759 686.515 184.991C680.809 193.127 676.743 195.382 667.125 196.936C653.434 197.647 641.694 188.663 639.275 175.137C637.871 167.288 640.825 162.114 644.962 155.99C657.923 136.807 671.089 117.769 684.309 98.7653C689.499 91.3043 694.179 88.0779 703.193 86.6496Z"/></svg>